<svg aria-hidden="true" viewBox="0 0 256 256" class="iconpack zhaw zhaw-logo" fill="#333333" role="img" xmlns="http://www.w3.org/2000/svg"><rect width="256" height="256" fill="none"></rect><path fill="#333333" stroke="#333333" d="M208,156.1s-.4,1.6-.4,1.6l-.6,2.4s-9.2,40.7-10.6,47.2c-.4-1.7-9.2-42.3-9.2-42.3-.4-1.7-.9-4-1.6-6.1l-.6-1.7c-2.6-6.2-8.5-10.1-15.2-10.1s-12.2,3.7-14.9,9.5c-.5,1.2-.9,2.6-1.3,4.1-.4,1.5-.7,3-1,4.3,0,0-7.8,36.5-9.1,42.5-.4-1.6-11.4-47.4-11.4-47.4l-.5-1.9c-.3-1.2-.6-2.1-.9-3-2.1-4.9-6.9-8.1-12.3-8.1-3.9,0-7.6,1.7-10.2,4.6-1.9,2.2-3,4.9-3.2,7.7,0,0,0,.6,0,.6,0,.8,0,1.6.1,2.4.3,2.8,1,5,1.6,7.1l17.9,58.1.4,1.2.9,2.7c2.7,6.3,9,10.4,15.8,10.4h.1c7.1,0,13.4-4.3,16.1-11,0,0,.8-2.9.8-2.9h0s.1-.6.1-.6c0,0,10.2-40.5,10.5-41.9.4,1.5,10.7,42.5,10.7,42.5l.8,2.7c2.5,6.7,9,11.2,16.2,11.2h.1c6.7,0,12.9-4,15.7-10.1.4-1,.7-2,1.1-3.2l.3-1,17.9-58.1c.7-2.1,1.4-4.4,1.6-7.1,0-.8.1-1.6.1-2.4v-.6c-.2-2.9-1.4-5.6-3.2-7.7-2.6-2.9-6.3-4.6-10.2-4.6-5.7,0-10.8,3.7-12.6,9Z"></path><path fill="#333333" stroke="#333333" d="M147.8,26v100.2c0,7.7,6.3,14,14,14s13.9-6.2,14-13.8v-40.5c0-10.8,8.7-17.4,16.8-17.4,11.8,0,13.6,9.5,13.6,15.1v42.8c.1,7.6,6.4,13.7,14,13.8,7.7,0,14-6.3,14-14v-47.4c0-21.2-12.2-33.9-32.5-33.9s-19.2,3.6-25.8,10.3v-29.5c-.1-7.6-6.4-13.7-14-13.7-7.7,0-14,6.3-14,14Z"></path><path fill="#333333" stroke="#333333" d="M102.3,226.4c-.7-2.5-1.6-5.6-1.6-11.7v-40.9c0-17.1-14.6-26.4-41-26.4s-40.1,11.8-40.1,23,5.1,11.3,11.3,11.3,5.2-1,7.2-2.6c1.2-.9,2.4-2,3.6-3.2,3.8-3.7,8-7.8,17.9-7.8s14,2.3,14,8.6-3.1,6.9-9.3,7.6l-14.9,1.7c-17.5,2-35.3,7.1-35.3,29.5s14.7,26.3,29,26.3,23.7-4,32.4-12.6c1.4,8.1,6.7,12.6,15.4,12.6s12.4-4.7,12.4-10.7-.4-3-.9-4.6ZM74.9,206.7c0,9-8.2,17.7-21.6,17.7s-13.5-4.5-13.5-10,5.5-10.5,15.7-12l8.9-1.3c2.8-.5,7.9-1.3,10.5-3.8v9.5Z"></path><path fill="#333333" stroke="#333333" d="M71.3,49.3c-1.3,0-2.6.2-3.8.5-4.7,1.5-7.8,5.9-7.8,10.8,0,4.9,3.1,9.3,7.8,10.8,1.2.4,2.5.5,3.8.5h31.2c-1.2,1.3-43.2,47-43.2,47-2.4,2.6-3.6,6-3.6,10.1v.5c.3,4.9,4.1,10.4,11.9,10.8h.8s62.2,0,62.2,0c1.3,0,2.6-.2,3.9-.6,4.7-1.5,7.8-5.9,7.8-10.8s-3.1-9.2-7.8-10.8h0c-1.2-.4-2.5-.6-3.9-.6h-36c1.2-1.3,42.4-46.5,42.4-46.5,2.7-2.9,4.3-6.4,4.3-9.4v-1.2c-.2-2.1-.6-3.9-1.5-5.5-1.3-2.5-3.4-4.3-6.1-5.2-1.3-.4-2.7-.6-4.3-.6h-58Z"></path></svg>